<?xml version="1.0" encoding="UTF-8"?>
<svg width="379px" height="50px" viewBox="0 0 379 50" version="1.1" xmlns="http://www.w3.org/2000/svg" xmlns:xlink="http://www.w3.org/1999/xlink">
    <!-- Generator: Sketch 64 (93537) - https://sketch.com -->
    <title>CloudBrains</title>
    <desc>Created with Sketch.</desc>
    <g id="Git-Knowledge-Base" stroke="none" stroke-width="1" fill="none" fill-rule="evenodd">
        <path d="M25.095,49.84 C26.355,49.84 27.5216667,49.7933333 28.595,49.7 C29.6683333,49.6066667 30.695,49.4433333 31.675,49.21 C32.655,48.9766667 33.6233333,48.6616667 34.58,48.265 C35.5366667,47.8683333 36.5283333,47.39 37.555,46.83 C38.1616667,46.5033333 38.6983333,46.34 39.165,46.34 C39.6783333,46.34 40.1216667,46.4683333 40.495,46.725 C40.8683333,46.9816667 41.1716667,47.3083333 41.405,47.705 C41.6383333,48.1016667 41.8016667,48.51 41.895,48.93 C41.9416667,49.1633333 42.0816667,49.3383333 42.315,49.455 C42.5483333,49.5716667 42.7933333,49.6183333 43.05,49.595 C43.3066667,49.5716667 43.5283333,49.49 43.715,49.35 C43.9016667,49.21 43.995,49 43.995,48.72 C43.9016667,46.9 43.7966667,45.1616667 43.68,43.505 C43.5633333,41.8483333 43.505,40.2266667 43.505,38.64 C43.505,37.7066667 43.5283333,36.785 43.575,35.875 C43.6216667,34.965 43.715,34.0433333 43.855,33.11 C43.9016667,32.9233333 43.8083333,32.7366667 43.575,32.55 C43.3416667,32.3633333 43.085,32.235 42.805,32.165 C42.525,32.095 42.2566667,32.1066667 42,32.2 C41.7433333,32.2933333 41.5916667,32.5033333 41.545,32.83 C41.1716667,35.21 40.5416667,37.345 39.655,39.235 C38.7683333,41.125 37.5783333,42.7466667 36.085,44.1 C34.8716667,45.1733333 33.3783333,45.9083333 31.605,46.305 C29.8316667,46.7016667 27.825,46.9 25.585,46.9 C22.6916667,46.9 20.23,46.235 18.2,44.905 C16.17,43.575 14.525,41.86 13.265,39.76 C12.005,37.66 11.095,35.3033333 10.535,32.69 C9.975,30.0766667 9.695,27.4633333 9.695,24.85 C9.695,22.47 9.92833333,20.0316667 10.395,17.535 C10.8616667,15.0383333 11.69,12.7516667 12.88,10.675 C14.07,8.59833333 15.6683333,6.90666667 17.675,5.6 C19.6816667,4.29333333 22.225,3.64 25.305,3.64 C29.2716667,3.64 32.5616667,4.63166667 35.175,6.615 C37.7883333,8.59833333 39.6783333,11.69 40.845,15.89 C40.8916667,16.1233333 41.055,16.2866667 41.335,16.38 C41.615,16.4733333 41.9066667,16.5083333 42.21,16.485 C42.5133333,16.4616667 42.77,16.3916667 42.98,16.275 C43.19,16.1583333 43.295,16.0066667 43.295,15.82 C43.1083333,14.42 42.9216667,13.0666667 42.735,11.76 C42.5483333,10.4533333 42.455,9.14666667 42.455,7.84 C42.455,7 42.49,6.18333333 42.56,5.39 C42.63,4.59666667 42.7583333,3.82666667 42.945,3.08 C42.9916667,2.89333333 42.9216667,2.75333333 42.735,2.66 C42.5483333,2.56666667 42.3266667,2.50833333 42.07,2.485 C41.8133333,2.46166667 41.5566667,2.49666667 41.3,2.59 C41.0433333,2.68333333 40.8916667,2.82333333 40.845,3.01 C40.6116667,3.89666667 40.1216667,4.34 39.375,4.34 C39.0483333,4.34 38.6633333,4.235 38.22,4.025 C37.7766667,3.815 37.2983333,3.59333333 36.785,3.36 C35.0583333,2.52 33.3083333,1.84333333 31.535,1.33 C29.7616667,0.816666667 27.825,0.56 25.725,0.56 C22.1316667,0.56 18.8066667,1.10833333 15.75,2.205 C12.6933333,3.30166667 10.0566667,4.92333333 7.84,7.07 C5.62333333,9.21666667 3.885,11.865 2.625,15.015 C1.365,18.165 0.735,21.7933333 0.735,25.9 C0.735,33.6 2.73,39.515 6.72,43.645 C10.71,47.775 16.835,49.84 25.095,49.84 Z M65.905,49.35 C66.185,49.35 66.395,49.245 66.535,49.035 C66.675,48.825 66.745,48.6033333 66.745,48.37 C66.745,48.09 66.675,47.845 66.535,47.635 C66.395,47.425 66.185,47.2966667 65.905,47.25 C64.6916667,47.11 63.7466667,46.9 63.07,46.62 C62.3933333,46.34 61.9033333,45.9433333 61.6,45.43 C61.2966667,44.9166667 61.1216667,44.2633333 61.075,43.47 C61.0283333,42.6766667 61.005,41.6966667 61.005,40.53 L61.005,40.53 L61.005,1.33 C60.9583333,1.05 60.83,0.781666667 60.62,0.525 C60.41,0.268333333 59.9783333,0.233333333 59.325,0.42 C57.5983333,0.933333333 55.7433333,1.28333333 53.76,1.47 C51.7766667,1.65666667 50.085,1.79666667 48.685,1.89 C48.405,1.89 48.2066667,2.00666667 48.09,2.24 C47.9733333,2.47333333 47.9266667,2.70666667 47.95,2.94 C47.9733333,3.17333333 48.0433333,3.40666667 48.16,3.64 C48.2766667,3.87333333 48.4516667,3.99 48.685,3.99 C50.0383333,4.13 51.1,4.31666667 51.87,4.55 C52.64,4.78333333 53.2116667,5.22666667 53.585,5.88 C53.9583333,6.53333333 54.1916667,7.455 54.285,8.645 C54.3783333,9.835 54.425,11.4333333 54.425,13.44 L54.425,40.95 C54.425,42.0233333 54.4016667,42.9216667 54.355,43.645 C54.3083333,44.3683333 54.1216667,44.975 53.795,45.465 C53.4683333,45.955 52.9433333,46.34 52.22,46.62 C51.4966667,46.9 50.4816667,47.11 49.175,47.25 C48.895,47.2966667 48.685,47.425 48.545,47.635 C48.405,47.845 48.335,48.09 48.335,48.37 C48.335,48.6033333 48.405,48.825 48.545,49.035 C48.685,49.245 48.8716667,49.35 49.105,49.35 C50.5983333,49.35 52.0683333,49.2683333 53.515,49.105 C54.9616667,48.9416667 56.4316667,48.86 57.925,48.86 C59.325,48.86 60.725,48.9416667 62.125,49.105 C63.525,49.2683333 64.785,49.35 65.905,49.35 Z M86.485,49.7 C89.005,49.7 91.2916667,49.315 93.345,48.545 C95.3983333,47.775 97.16,46.6433333 98.63,45.15 C100.1,43.6566667 101.231667,41.8133333 102.025,39.62 C102.818333,37.4266667 103.215,34.9066667 103.215,32.06 C103.215,29.4933333 102.818333,27.23 102.025,25.27 C101.231667,23.31 100.135,21.665 98.735,20.335 C97.335,19.005 95.6666667,17.99 93.73,17.29 C91.7933333,16.59 89.6816667,16.24 87.395,16.24 C85.015,16.24 82.8216667,16.6366667 80.815,17.43 C78.8083333,18.2233333 77.0933333,19.32 75.67,20.72 C74.2466667,22.12 73.1383333,23.8116667 72.345,25.795 C71.5516667,27.7783333 71.155,29.96 71.155,32.34 C71.155,35.28 71.5516667,37.835 72.345,40.005 C73.1383333,42.175 74.2116667,43.9716667 75.565,45.395 C76.9183333,46.8183333 78.5283333,47.8916667 80.395,48.615 C82.2616667,49.3383333 84.2916667,49.7 86.485,49.7 Z M87.255,47.11 C85.4816667,47.11 84.0233333,46.6666667 82.88,45.78 C81.7366667,44.8933333 80.8383333,43.7733333 80.185,42.42 C79.5316667,41.0666667 79.0883333,39.55 78.855,37.87 C78.6216667,36.19 78.505,34.5566667 78.505,32.97 C78.505,31.15 78.6333333,29.4 78.89,27.72 C79.1466667,26.04 79.6133333,24.535 80.29,23.205 C80.9666667,21.875 81.8883333,20.8133333 83.055,20.02 C84.2216667,19.2266667 85.7383333,18.83 87.605,18.83 C89.285,18.83 90.6616667,19.2266667 91.735,20.02 C92.8083333,20.8133333 93.6483333,21.8633333 94.255,23.17 C94.8616667,24.4766667 95.2816667,25.97 95.515,27.65 C95.7483333,29.33 95.865,31.0566667 95.865,32.83 C95.865,34.5566667 95.76,36.2716667 95.55,37.975 C95.34,39.6783333 94.92,41.2066667 94.29,42.56 C93.66,43.9133333 92.785,45.01 91.665,45.85 C90.545,46.69 89.075,47.11 87.255,47.11 Z M135.345,49.7 C135.531667,49.7 135.928333,49.6533333 136.535,49.56 C137.141667,49.4666667 137.795,49.35 138.495,49.21 C139.195,49.07 139.883333,48.93 140.56,48.79 C141.236667,48.65 141.761667,48.5566667 142.135,48.51 C142.601667,48.4633333 142.986667,48.4166667 143.29,48.37 C143.593333,48.3233333 143.873333,48.2883333 144.13,48.265 C144.386667,48.2416667 144.643333,48.2183333 144.9,48.195 C145.156667,48.1716667 145.471667,48.16 145.845,48.16 C146.078333,48.16 146.241667,48.0433333 146.335,47.81 C146.428333,47.5766667 146.475,47.3433333 146.475,47.11 C146.475,46.83 146.416667,46.585 146.3,46.375 C146.183333,46.165 146.031667,46.06 145.845,46.06 C144.585,46.06 143.605,45.9316667 142.905,45.675 C142.205,45.4183333 141.68,44.9516667 141.33,44.275 C140.98,43.5983333 140.77,42.665 140.7,41.475 C140.63,40.285 140.595,38.7333333 140.595,36.82 L140.595,36.82 L140.595,18.2 C140.595,17.92 140.478333,17.5816667 140.245,17.185 C140.011667,16.7883333 139.568333,16.6833333 138.915,16.87 C137.188333,17.3833333 135.625,17.8033333 134.225,18.13 C132.825,18.4566667 131.285,18.6666667 129.605,18.76 C129.325,18.76 129.126667,18.865 129.01,19.075 C128.893333,19.285 128.846667,19.5183333 128.87,19.775 C128.893333,20.0316667 128.963333,20.265 129.08,20.475 C129.196667,20.685 129.371667,20.8133333 129.605,20.86 C130.725,21 131.576667,21.1633333 132.16,21.35 C132.743333,21.5366667 133.175,21.91 133.455,22.47 C133.735,23.03 133.898333,23.87 133.945,24.99 C133.991667,26.11 134.015,27.6733333 134.015,29.68 L134.015,29.68 L134.015,40.74 C134.015,40.9266667 134.003333,41.2066667 133.98,41.58 C133.956667,41.9533333 133.875,42.21 133.735,42.35 C132.848333,43.1433333 131.541667,43.82 129.815,44.38 C128.088333,44.94 126.431667,45.22 124.845,45.22 C123.725,45.22 122.791667,45.0333333 122.045,44.66 C121.298333,44.2866667 120.715,43.68 120.295,42.84 C119.875,42 119.583333,40.9266667 119.42,39.62 C119.256667,38.3133333 119.175,36.7266667 119.175,34.86 L119.175,34.86 L119.175,18.2 C119.175,17.92 119.058333,17.5816667 118.825,17.185 C118.591667,16.7883333 118.148333,16.6833333 117.495,16.87 C116.655,17.1033333 115.756667,17.325 114.8,17.535 C113.843333,17.745 112.921667,17.9433333 112.035,18.13 C111.148333,18.3166667 110.32,18.4566667 109.55,18.55 C108.78,18.6433333 108.161667,18.7133333 107.695,18.76 C107.415,18.76 107.216667,18.8766667 107.1,19.11 C106.983333,19.3433333 106.936667,19.5766667 106.96,19.81 C106.983333,20.0433333 107.053333,20.2766667 107.17,20.51 C107.286667,20.7433333 107.461667,20.86 107.695,20.86 C108.815,21 109.701667,21.1633333 110.355,21.35 C111.008333,21.5366667 111.498333,21.91 111.825,22.47 C112.151667,23.03 112.361667,23.87 112.455,24.99 C112.548333,26.11 112.595,27.6733333 112.595,29.68 L112.595,37.59 C112.595,39.5033333 112.758333,41.2183333 113.085,42.735 C113.411667,44.2516667 113.971667,45.5233333 114.765,46.55 C115.558333,47.5766667 116.655,48.3583333 118.055,48.895 C119.455,49.4316667 121.228333,49.7 123.375,49.7 C125.008333,49.7 126.7,49.4083333 128.45,48.825 C130.2,48.2416667 131.938333,47.2033333 133.665,45.71 C133.758333,45.6166667 133.851667,45.5816667 133.945,45.605 C134.038333,45.6283333 134.085,45.6866667 134.085,45.78 C134.085,48.3933333 134.505,49.7 135.345,49.7 Z M173.915,49.7 C174.101667,49.7 174.498333,49.6533333 175.105,49.56 C175.711667,49.4666667 176.365,49.35 177.065,49.21 C177.765,49.07 178.441667,48.93 179.095,48.79 C179.748333,48.65 180.261667,48.5566667 180.635,48.51 C181.101667,48.4633333 181.486667,48.4166667 181.79,48.37 C182.093333,48.3233333 182.373333,48.2883333 182.63,48.265 C182.886667,48.2416667 183.143333,48.2183333 183.4,48.195 C183.656667,48.1716667 183.971667,48.16 184.345,48.16 C184.578333,48.16 184.741667,48.0433333 184.835,47.81 C184.928333,47.5766667 184.975,47.3433333 184.975,47.11 C184.975,46.83 184.916667,46.585 184.8,46.375 C184.683333,46.165 184.531667,46.06 184.345,46.06 C183.085,46.06 182.105,45.9316667 181.405,45.675 C180.705,45.4183333 180.18,44.9516667 179.83,44.275 C179.48,43.5983333 179.27,42.665 179.2,41.475 C179.13,40.285 179.095,38.7333333 179.095,36.82 L179.095,36.82 L179.095,1.26 C179.048333,0.98 178.92,0.711666667 178.71,0.455 C178.5,0.198333333 178.091667,0.163333333 177.485,0.35 C176.645,0.583333333 175.758333,0.793333333 174.825,0.98 C173.891667,1.16666667 172.935,1.30666667 171.955,1.4 C170.975,1.49333333 170.018333,1.575 169.085,1.645 C168.151667,1.715 167.288333,1.77333333 166.495,1.82 C166.261667,1.82 166.098333,1.93666667 166.005,2.17 C165.911667,2.40333333 165.865,2.63666667 165.865,2.87 C165.865,3.10333333 165.923333,3.33666667 166.04,3.57 C166.156667,3.80333333 166.308333,3.92 166.495,3.92 C167.895,4.06 169.003333,4.24666667 169.82,4.48 C170.636667,4.71333333 171.243333,5.15666667 171.64,5.81 C172.036667,6.46333333 172.281667,7.385 172.375,8.575 C172.468333,9.765 172.515,11.3633333 172.515,13.37 L172.515,13.37 L172.515,17.64 C171.488333,17.1266667 170.415,16.765 169.295,16.555 C168.175,16.345 167.148333,16.24 166.215,16.24 C164.255,16.24 162.283333,16.59 160.3,17.29 C158.316667,17.99 156.531667,19.075 154.945,20.545 C153.358333,22.015 152.075,23.8816667 151.095,26.145 C150.115,28.4083333 149.625,31.1033333 149.625,34.23 C149.625,36.61 149.94,38.7566667 150.57,40.67 C151.2,42.5833333 152.086667,44.205 153.23,45.535 C154.373333,46.865 155.773333,47.8916667 157.43,48.615 C159.086667,49.3383333 160.941667,49.7 162.995,49.7 C164.955,49.7 166.611667,49.3966667 167.965,48.79 C169.318333,48.1833333 170.718333,47.2266667 172.165,45.92 C172.258333,45.8266667 172.363333,45.7566667 172.48,45.71 C172.596667,45.6633333 172.655,45.7566667 172.655,45.99 C172.655,47.1566667 172.771667,48.0666667 173.005,48.72 C173.238333,49.3733333 173.541667,49.7 173.915,49.7 Z M164.395,45.71 C163.181667,45.71 162.12,45.3483333 161.21,44.625 C160.3,43.9016667 159.53,42.945 158.9,41.755 C158.27,40.565 157.791667,39.2116667 157.465,37.695 C157.138333,36.1783333 156.975,34.6266667 156.975,33.04 C156.975,30.3333333 157.173333,28.0933333 157.57,26.32 C157.966667,24.5466667 158.55,23.1466667 159.32,22.12 C160.09,21.0933333 161.035,20.37 162.155,19.95 C163.275,19.53 164.535,19.32 165.935,19.32 C167.381667,19.32 168.618333,19.5883333 169.645,20.125 C170.671667,20.6616667 171.628333,21.49 172.515,22.61 L172.515,22.61 L172.515,42.07 C171.628333,43.1433333 170.543333,44.0183333 169.26,44.695 C167.976667,45.3716667 166.355,45.71 164.395,45.71 Z M188.915781,49.4309375 L189.035,49.42 C190.015,49.3266667 190.89,49.245 191.66,49.175 C192.43,49.105 193.176667,49.0466667 193.9,49 C194.623333,48.9533333 195.381667,48.9183333 196.175,48.895 C196.968333,48.8716667 197.855,48.86 198.835,48.86 C199.861667,48.86 200.97,48.8833333 202.16,48.93 C203.35,48.9766667 204.528333,49.0116667 205.695,49.035 C206.861667,49.0583333 207.993333,49.0933333 209.09,49.14 C210.186667,49.1866667 211.178333,49.21 212.065,49.21 C214.025,49.21 215.926667,49.0233333 217.77,48.65 C219.613333,48.2766667 221.258333,47.635 222.705,46.725 C224.151667,45.815 225.306667,44.5666667 226.17,42.98 C227.033333,41.3933333 227.465,39.3866667 227.465,36.96 C227.465,35.14 227.208333,33.565 226.695,32.235 C226.181667,30.905 225.435,29.75 224.455,28.77 C223.475,27.79 222.273333,26.9383333 220.85,26.215 C219.426667,25.4916667 217.805,24.85 215.985,24.29 C215.705,24.1966667 215.541667,24.0333333 215.495,23.8 C215.448333,23.5666667 215.611667,23.38 215.985,23.24 C217.105,22.82 218.178333,22.3183333 219.205,21.735 C220.231667,21.1516667 221.118333,20.4633333 221.865,19.67 C222.611667,18.8766667 223.206667,17.9433333 223.65,16.87 C224.093333,15.7966667 224.315,14.5366667 224.315,13.09 C224.315,10.7566667 223.766667,8.855 222.67,7.385 C221.573333,5.915 220.173333,4.76 218.47,3.92 C216.766667,3.08 214.911667,2.50833333 212.905,2.205 C210.898333,1.90166667 208.985,1.75 207.165,1.75 C206.465,1.75 205.683333,1.76166667 204.82,1.785 C203.956667,1.80833333 203.07,1.84333333 202.16,1.89 C201.25,1.93666667 200.363333,1.97166667 199.5,1.995 C198.636667,2.01833333 197.855,2.03 197.155,2.03 C195.475,2.03 194.005,1.98333333 192.745,1.89 C191.485,1.79666667 190.061667,1.75 188.475,1.75 C188.195,1.75 187.985,1.86666667 187.845,2.1 C187.705,2.33333333 187.635,2.59 187.635,2.87 C187.635,3.15 187.705,3.40666667 187.845,3.64 C187.985,3.87333333 188.195,3.99 188.475,3.99 C188.988333,4.03666667 189.525,4.10666667 190.085,4.2 C190.645,4.29333333 191.181667,4.41 191.695,4.55 C192.535,4.78333333 193.2,5.20333333 193.69,5.81 C194.18,6.41666667 194.541667,7.14 194.775,7.98 C195.008333,8.82 195.16,9.73 195.23,10.71 C195.3,11.69 195.335,12.6933333 195.335,13.72 L195.335,13.72 L195.335,40.6 C195.335,41.8133333 195.218333,42.7933333 194.985,43.54 C194.751667,44.2866667 194.378333,44.905 193.865,45.395 C193.351667,45.885 192.686667,46.2466667 191.87,46.48 C191.053333,46.7133333 190.085,46.9 188.965,47.04 C188.591667,47.0866667 188.323333,47.25 188.16,47.53 C187.996667,47.81 187.926667,48.09 187.95,48.37 C187.973333,48.65 188.078333,48.9066667 188.265,49.14 C188.451667,49.3733333 188.708333,49.4666667 189.035,49.42 L188.915781,49.4309375 Z M205.975,22.96 L204.645,22.96 C204.038333,22.96 203.606667,22.7733333 203.35,22.4 C203.093333,22.0266667 202.965,21.6066667 202.965,21.14 L202.965,21.14 L202.965,7.91 C202.965,6.74333333 203.046667,5.915 203.21,5.425 C203.373333,4.935 203.898333,4.69 204.785,4.69 L204.785,4.69 L207.165,4.69 C210.198333,4.69 212.52,5.37833333 214.13,6.755 C215.74,8.13166667 216.545,10.43 216.545,13.65 C216.545,15.5633333 216.276667,17.115 215.74,18.305 C215.203333,19.495 214.468333,20.44 213.535,21.14 C212.601667,21.84 211.493333,22.3183333 210.21,22.575 C208.926667,22.8316667 207.515,22.96 205.975,22.96 L205.975,22.96 Z M210.945,46.13 C209.171667,46.13 207.76,46.0366667 206.71,45.85 C205.66,45.6633333 204.855,45.2083333 204.295,44.485 C203.735,43.7616667 203.373333,42.665 203.21,41.195 C203.046667,39.725 202.965,37.73 202.965,35.21 L202.965,35.21 L202.965,29.05 C202.965,28.1633333 203.116667,27.4166667 203.42,26.81 C203.723333,26.2033333 204.341667,25.9 205.275,25.9 L205.275,25.9 L206.605,25.9 C208.285,25.9 209.871667,26.0516667 211.365,26.355 C212.858333,26.6583333 214.153333,27.2066667 215.25,28 C216.346667,28.7933333 217.221667,29.9016667 217.875,31.325 C218.528333,32.7483333 218.855,34.58 218.855,36.82 C218.855,39.9466667 218.236667,42.28 217,43.82 C215.763333,45.36 213.745,46.13 210.945,46.13 Z M249.165,49.35 C249.445,49.35 249.655,49.245 249.795,49.035 C249.935,48.825 250.005,48.6033333 250.005,48.37 C250.005,48.09 249.935,47.845 249.795,47.635 C249.655,47.425 249.445,47.2966667 249.165,47.25 C247.485,47.11 246.201667,46.9 245.315,46.62 C244.428333,46.34 243.775,45.9433333 243.355,45.43 C242.935,44.9166667 242.69,44.2633333 242.62,43.47 C242.55,42.6766667 242.515,41.6966667 242.515,40.53 L242.515,40.53 L242.515,27.37 C242.515,26.9033333 242.655,26.25 242.935,25.41 C243.215,24.57 243.611667,23.7533333 244.125,22.96 C244.638333,22.1666667 245.256667,21.4783333 245.98,20.895 C246.703333,20.3116667 247.508333,20.02 248.395,20.02 C249.235,20.02 249.783333,20.2066667 250.04,20.58 C250.296667,20.9533333 250.425,21.4666667 250.425,22.12 C250.425,22.7266667 250.635,23.2866667 251.055,23.8 C251.475,24.3133333 252.221667,24.57 253.295,24.57 C254.415,24.57 255.278333,24.2433333 255.885,23.59 C256.491667,22.9366667 256.795,22.2133333 256.795,21.42 C256.795,19.9733333 256.328333,18.7483333 255.395,17.745 C254.461667,16.7416667 253.015,16.24 251.055,16.24 C248.675,16.24 246.773333,16.8233333 245.35,17.99 C243.926667,19.1566667 242.725,20.72 241.745,22.68 C241.651667,22.7733333 241.581667,22.8083333 241.535,22.785 C241.488333,22.7616667 241.465,22.7033333 241.465,22.61 L241.465,22.61 L241.605,18.13 C241.651667,17.4766667 241.465,17.08 241.045,16.94 C240.625,16.8 240.088333,16.8233333 239.435,17.01 C237.708333,17.4766667 236.016667,17.7683333 234.36,17.885 C232.703333,18.0016667 231.408333,18.1066667 230.475,18.2 C230.195,18.2 229.996667,18.3166667 229.88,18.55 C229.763333,18.7833333 229.705,19.0166667 229.705,19.25 C229.705,19.4833333 229.763333,19.7166667 229.88,19.95 C229.996667,20.1833333 230.171667,20.3 230.405,20.3 C231.711667,20.3933333 232.738333,20.5566667 233.485,20.79 C234.231667,21.0233333 234.78,21.5016667 235.13,22.225 C235.48,22.9483333 235.701667,23.975 235.795,25.305 C235.888333,26.635 235.935,28.4433333 235.935,30.73 L235.935,40.95 C235.935,42.0233333 235.9,42.9216667 235.83,43.645 C235.76,44.3683333 235.561667,44.975 235.235,45.465 C234.908333,45.955 234.383333,46.34 233.66,46.62 C232.936667,46.9 231.921667,47.11 230.615,47.25 C230.335,47.2966667 230.125,47.425 229.985,47.635 C229.845,47.845 229.775,48.09 229.775,48.37 C229.775,48.6033333 229.845,48.825 229.985,49.035 C230.125,49.245 230.311667,49.35 230.545,49.35 C232.038333,49.35 233.52,49.2683333 234.99,49.105 C236.46,48.9416667 237.941667,48.86 239.435,48.86 C240.835,48.86 242.305,48.9416667 243.845,49.105 C245.385,49.2683333 247.158333,49.35 249.165,49.35 Z M283.885,49.7 C286.358333,49.7 288.505,48.6033333 290.325,46.41 C290.465,46.27 290.511667,46.095 290.465,45.885 C290.418333,45.675 290.336667,45.4883333 290.22,45.325 C290.103333,45.1616667 289.963333,45.0333333 289.8,44.94 C289.636667,44.8466667 289.485,44.8466667 289.345,44.94 C288.738333,45.3133333 288.271667,45.5583333 287.945,45.675 C287.618333,45.7916667 287.198333,45.85 286.685,45.85 C285.798333,45.85 285.203333,45.5233333 284.9,44.87 C284.596667,44.2166667 284.445,43.0733333 284.445,41.44 L284.445,41.44 L284.445,27.44 C284.445,23.4266667 283.371667,20.5566667 281.225,18.83 C279.078333,17.1033333 276.138333,16.24 272.405,16.24 C270.771667,16.24 269.208333,16.4616667 267.715,16.905 C266.221667,17.3483333 264.915,17.9433333 263.795,18.69 C262.675,19.4366667 261.788333,20.335 261.135,21.385 C260.481667,22.435 260.155,23.5433333 260.155,24.71 C260.155,25.69 260.423333,26.5183333 260.96,27.195 C261.496667,27.8716667 262.395,28.21 263.655,28.21 C264.588333,28.21 265.381667,27.9066667 266.035,27.3 C266.688333,26.6933333 267.015,26.0633333 267.015,25.41 C267.015,24.8966667 266.851667,24.395 266.525,23.905 C266.198333,23.415 266.035,22.9133333 266.035,22.4 C266.035,21.3266667 266.571667,20.4516667 267.645,19.775 C268.718333,19.0983333 270.118333,18.76 271.845,18.76 C273.011667,18.76 273.991667,18.9816667 274.785,19.425 C275.578333,19.8683333 276.196667,20.475 276.64,21.245 C277.083333,22.015 277.398333,22.9133333 277.585,23.94 C277.771667,24.9666667 277.865,26.0633333 277.865,27.23 L277.865,27.23 L277.864421,29.3415702 C277.860565,30.0550689 277.837424,30.5178788 277.795,30.73 C277.748333,30.9633333 277.678333,31.08 277.585,31.08 C271.611667,31.08 267.061667,31.9783333 263.935,33.775 C260.808333,35.5716667 259.245,38.15 259.245,41.51 C259.245,44.1233333 259.968333,46.1416667 261.415,47.565 C262.861667,48.9883333 264.915,49.7 267.575,49.7 C270.001667,49.7 272.02,49.35 273.63,48.65 C275.24,47.95 276.651667,47.0633333 277.865,45.99 C278.051667,45.8033333 278.191667,45.8266667 278.285,46.06 C278.751667,47.04 279.463333,47.8916667 280.42,48.615 C281.376667,49.3383333 282.531667,49.7 283.885,49.7 Z M270.725,45.71 C269.091667,45.71 267.925,45.2316667 267.225,44.275 C266.525,43.3183333 266.175,42.14 266.175,40.74 C266.175,38.7333333 267.096667,37.0883333 268.94,35.805 C270.783333,34.5216667 273.618333,33.7166667 277.445,33.39 C277.631667,33.39 277.748333,33.4483333 277.795,33.565 C277.841667,33.6816667 277.865,33.9966667 277.865,34.51 L277.865,42.14 C277.865,42.5133333 277.678333,42.8866667 277.305,43.26 C276.371667,44.0533333 275.31,44.66 274.12,45.08 C272.93,45.5 271.798333,45.71 270.725,45.71 Z M300.755,9.52 C301.828333,9.52 302.715,9.15833333 303.415,8.435 C304.115,7.71166667 304.465,6.83666667 304.465,5.81 C304.465,4.73666667 304.103333,3.815 303.38,3.045 C302.656667,2.275 301.735,1.89 300.615,1.89 C299.448333,1.89 298.468333,2.26333333 297.675,3.01 C296.881667,3.75666667 296.485,4.66666667 296.485,5.74 C296.485,6.81333333 296.905,7.71166667 297.745,8.435 C298.585,9.15833333 299.588333,9.52 300.755,9.52 Z M308.805,49.35 C309.085,49.35 309.295,49.245 309.435,49.035 C309.575,48.825 309.645,48.6033333 309.645,48.37 C309.645,48.09 309.575,47.845 309.435,47.635 C309.295,47.425 309.085,47.2966667 308.805,47.25 C307.731667,47.11 306.903333,46.9 306.32,46.62 C305.736667,46.34 305.305,45.9433333 305.025,45.43 C304.745,44.9166667 304.581667,44.2633333 304.535,43.47 C304.488333,42.6766667 304.465,41.6966667 304.465,40.53 L304.465,40.53 L304.465,18.06 C304.465,17.78 304.383333,17.4766667 304.22,17.15 C304.056667,16.8233333 303.695,16.66 303.135,16.66 C302.948333,16.66 302.703333,16.7183333 302.4,16.835 C302.096667,16.9516667 301.688333,17.0566667 301.175,17.15 C300.568333,17.29 299.88,17.4183333 299.11,17.535 C298.34,17.6516667 297.581667,17.745 296.835,17.815 C296.088333,17.885 295.376667,17.9433333 294.7,17.99 C294.023333,18.0366667 293.451667,18.0833333 292.985,18.13 C292.705,18.13 292.495,18.2466667 292.355,18.48 C292.215,18.7133333 292.145,18.9466667 292.145,19.18 C292.145,19.4133333 292.215,19.6466667 292.355,19.88 C292.495,20.1133333 292.705,20.23 292.985,20.23 C294.105,20.37 294.991667,20.5566667 295.645,20.79 C296.298333,21.0233333 296.788333,21.455 297.115,22.085 C297.441667,22.715 297.651667,23.6366667 297.745,24.85 C297.838333,26.0633333 297.885,27.6733333 297.885,29.68 L297.885,29.68 L297.885,40.95 C297.885,42.0233333 297.861667,42.9216667 297.815,43.645 C297.768333,44.3683333 297.593333,44.975 297.29,45.465 C296.986667,45.955 296.496667,46.34 295.82,46.62 C295.143333,46.9 294.198333,47.11 292.985,47.25 C292.705,47.2966667 292.495,47.425 292.355,47.635 C292.215,47.845 292.145,48.09 292.145,48.37 C292.145,48.6033333 292.215,48.825 292.355,49.035 C292.495,49.245 292.681667,49.35 292.915,49.35 C294.221667,49.35 295.586667,49.2683333 297.01,49.105 C298.433333,48.9416667 299.891667,48.86 301.385,48.86 C302.785,48.86 304.161667,48.9416667 305.515,49.105 C306.868333,49.2683333 307.965,49.35 308.805,49.35 Z M349.685,49.35 C349.965,49.35 350.175,49.245 350.315,49.035 C350.455,48.825 350.525,48.6033333 350.525,48.37 C350.525,48.09 350.455,47.845 350.315,47.635 C350.175,47.425 349.965,47.2966667 349.685,47.25 C348.705,47.11 347.946667,46.9116667 347.41,46.655 C346.873333,46.3983333 346.476667,46.025 346.22,45.535 C345.963333,45.045 345.8,44.4033333 345.73,43.61 C345.66,42.8166667 345.625,41.79 345.625,40.53 L345.625,40.53 L345.625,28.56 C345.625,24.22 344.633333,21.0816667 342.65,19.145 C340.666667,17.2083333 337.925,16.24 334.425,16.24 C333.165,16.24 332.021667,16.4266667 330.995,16.8 C329.968333,17.1733333 329.046667,17.64 328.23,18.2 C327.413333,18.76 326.713333,19.355 326.13,19.985 C325.546667,20.615 325.091667,21.1866667 324.765,21.7 C324.718333,21.7933333 324.66,21.8283333 324.59,21.805 C324.52,21.7816667 324.485,21.7233333 324.485,21.63 L324.485,21.63 L324.485,18.83 C324.485,18.27 324.321667,17.7683333 323.995,17.325 C323.668333,16.8816667 323.178333,16.7533333 322.525,16.94 C320.751667,17.4533333 319.013333,17.85 317.31,18.13 C315.606667,18.41 314.311667,18.55 313.425,18.55 C313.145,18.55 312.923333,18.6433333 312.76,18.83 C312.596667,19.0166667 312.515,19.25 312.515,19.53 C312.515,19.7633333 312.596667,19.9733333 312.76,20.16 C312.923333,20.3466667 313.145,20.44 313.425,20.44 C314.545,20.44 315.408333,20.615 316.015,20.965 C316.621667,21.315 317.065,21.9333333 317.345,22.82 C317.625,23.7066667 317.788333,24.9083333 317.835,26.425 C317.881667,27.9416667 317.905,29.8433333 317.905,32.13 L317.905,32.13 L317.905,40.95 C317.905,42.1166667 317.881667,43.0733333 317.835,43.82 C317.788333,44.5666667 317.613333,45.1733333 317.31,45.64 C317.006667,46.1066667 316.54,46.4566667 315.91,46.69 C315.28,46.9233333 314.381667,47.11 313.215,47.25 C312.935,47.2966667 312.725,47.425 312.585,47.635 C312.445,47.845 312.375,48.09 312.375,48.37 C312.375,48.6033333 312.445,48.825 312.585,49.035 C312.725,49.245 312.911667,49.35 313.145,49.35 C314.358333,49.35 315.665,49.2683333 317.065,49.105 C318.465,48.9416667 319.911667,48.86 321.405,48.86 C322.805,48.86 324.146667,48.9416667 325.43,49.105 C326.713333,49.2683333 327.588333,49.35 328.055,49.35 C328.335,49.35 328.545,49.245 328.685,49.035 C328.825,48.825 328.895,48.6033333 328.895,48.37 C328.895,48.09 328.825,47.845 328.685,47.635 C328.545,47.425 328.335,47.2966667 328.055,47.25 C327.168333,47.11 326.48,46.9 325.99,46.62 C325.5,46.34 325.15,45.9433333 324.94,45.43 C324.73,44.9166667 324.601667,44.2633333 324.555,43.47 C324.508333,42.6766667 324.485,41.6966667 324.485,40.53 L324.485,40.53 L324.485,28.7 C324.485,27.58 324.671667,26.5183333 325.045,25.515 C325.418333,24.5116667 325.966667,23.6366667 326.69,22.89 C327.413333,22.1433333 328.3,21.5483333 329.35,21.105 C330.4,20.6616667 331.625,20.44 333.025,20.44 C334.425,20.44 335.521667,20.7433333 336.315,21.35 C337.108333,21.9566667 337.715,22.7266667 338.135,23.66 C338.555,24.5933333 338.811667,25.6433333 338.905,26.81 C338.998333,27.9766667 339.045,29.1433333 339.045,30.31 L339.045,30.31 L339.045,40.95 C339.045,42.0233333 339.021667,42.9216667 338.975,43.645 C338.928333,44.3683333 338.776667,44.975 338.52,45.465 C338.263333,45.955 337.866667,46.34 337.33,46.62 C336.793333,46.9 336.011667,47.11 334.985,47.25 C334.705,47.2966667 334.495,47.425 334.355,47.635 C334.215,47.845 334.145,48.09 334.145,48.37 C334.145,48.6033333 334.215,48.825 334.355,49.035 C334.495,49.245 334.681667,49.35 334.915,49.35 C335.801667,49.35 336.921667,49.2683333 338.275,49.105 C339.628333,48.9416667 341.051667,48.86 342.545,48.86 C343.945,48.86 345.333333,48.9416667 346.71,49.105 C348.086667,49.2683333 349.078333,49.35 349.685,49.35 Z M366.065,49.7 C367.511667,49.7 368.981667,49.5366667 370.475,49.21 C371.968333,48.8833333 373.298333,48.3583333 374.465,47.635 C375.631667,46.9116667 376.588333,45.955 377.335,44.765 C378.081667,43.575 378.455,42.0933333 378.455,40.32 C378.455,38.9666667 378.233333,37.7766667 377.79,36.75 C377.346667,35.7233333 376.74,34.8016667 375.97,33.985 C375.2,33.1683333 374.29,32.4566667 373.24,31.85 C372.19,31.2433333 371.058333,30.66 369.845,30.1 C369.285,29.8666667 368.55,29.575 367.64,29.225 C366.73,28.875 365.948333,28.5833333 365.295,28.35 C363.755,27.79 362.518333,27.1833333 361.585,26.53 C360.651667,25.8766667 360.185,24.9433333 360.185,23.73 C360.185,22.2833333 360.745,21.1283333 361.865,20.265 C362.985,19.4016667 364.408333,18.97 366.135,18.97 C368.701667,18.97 370.568333,19.635 371.735,20.965 C372.901667,22.295 373.741667,24.1966667 374.255,26.67 C374.301667,26.81 374.418333,26.915 374.605,26.985 C374.791667,27.055 375.001667,27.0783333 375.235,27.055 C375.468333,27.0316667 375.678333,26.9733333 375.865,26.88 C376.051667,26.7866667 376.145,26.67 376.145,26.53 C376.145,26.0166667 376.121667,25.2816667 376.075,24.325 C376.028333,23.3683333 376.005,22.4466667 376.005,21.56 C376.005,20.72 376.063333,19.9266667 376.18,19.18 C376.296667,18.4333333 376.425,17.8033333 376.565,17.29 C376.611667,17.15 376.541667,17.0333333 376.355,16.94 C376.168333,16.8466667 375.958333,16.7883333 375.725,16.765 C375.491667,16.7416667 375.258333,16.7533333 375.025,16.8 C374.791667,16.8466667 374.651667,16.9633333 374.605,17.15 C374.418333,17.8033333 374.173333,18.1883333 373.87,18.305 C373.566667,18.4216667 373.321667,18.4333333 373.135,18.34 C371.921667,17.5466667 370.813333,16.9983333 369.81,16.695 C368.806667,16.3916667 367.651667,16.24 366.345,16.24 C364.991667,16.24 363.615,16.4033333 362.215,16.73 C360.815,17.0566667 359.543333,17.5816667 358.4,18.305 C357.256667,19.0283333 356.323333,19.9733333 355.6,21.14 C354.876667,22.3066667 354.515,23.73 354.515,25.41 C354.515,26.8566667 354.748333,28.07 355.215,29.05 C355.681667,30.03 356.3,30.8466667 357.07,31.5 C357.84,32.1533333 358.726667,32.7016667 359.73,33.145 C360.733333,33.5883333 361.748333,34.02 362.775,34.44 C363.475,34.72 364.163333,35 364.84,35.28 C365.516667,35.56 366.181667,35.84 366.835,36.12 C368.235,36.7733333 369.46,37.5316667 370.51,38.395 C371.56,39.2583333 372.085,40.4366667 372.085,41.93 C372.085,43.61 371.56,44.9166667 370.51,45.85 C369.46,46.7833333 368.095,47.25 366.415,47.25 C364.875,47.25 363.556667,47.075 362.46,46.725 C361.363333,46.375 360.43,45.85 359.66,45.15 C358.89,44.45 358.248333,43.5866667 357.735,42.56 C357.221667,41.5333333 356.801667,40.3433333 356.475,38.99 C356.428333,38.8033333 356.3,38.675 356.09,38.605 C355.88,38.535 355.658333,38.5116667 355.425,38.535 C355.191667,38.5583333 354.981667,38.6166667 354.795,38.71 C354.608333,38.8033333 354.515,38.9433333 354.515,39.13 C354.515,39.3633333 354.538333,39.7366667 354.585,40.25 C354.631667,40.7633333 354.69,41.3466667 354.76,42 C354.83,42.6533333 354.9,43.3183333 354.97,43.995 C355.04,44.6716667 355.075,45.29 355.075,45.85 C355.075,46.41 355.028333,47.0166667 354.935,47.67 C354.841667,48.3233333 354.795,48.8366667 354.795,49.21 C354.795,49.35 354.888333,49.455 355.075,49.525 C355.261667,49.595 355.448333,49.63 355.635,49.63 C355.868333,49.63 356.09,49.6066667 356.3,49.56 C356.51,49.5133333 356.615,49.42 356.615,49.28 C356.708333,48.7666667 356.906667,48.4166667 357.21,48.23 C357.513333,48.0433333 357.805,47.9966667 358.085,48.09 C359.205,48.6033333 360.511667,49 362.005,49.28 C363.498333,49.56 364.851667,49.7 366.065,49.7 Z" id="CloudBrains" fill="#FFFFFF" fill-rule="nonzero"></path>
    </g>
</svg>